<mxfile host="app.diagrams.net" modified="2021-03-14T10:03:03.976Z" agent="5.0 (Windows NT 10.0; Win64; x64) AppleWebKit/537.36 (KHTML, like Gecko) Chrome/89.0.4389.82 Safari/537.36" etag="NY0RDU5kMIwQPzzUH-b9" version="14.4.8" type="github">
  <diagram id="E248alvuNCokP2wF9lS1" name="Page-1">
    <mxGraphModel dx="1865" dy="548" grid="1" gridSize="10" guides="1" tooltips="1" connect="1" arrows="1" fold="1" page="1" pageScale="1" pageWidth="827" pageHeight="1169" math="0" shadow="0">
      <root>
        <mxCell id="0" />
        <mxCell id="1" parent="0" />
        <mxCell id="Xj0UDZpbtA1QylR7ETEB-41" value="" style="rounded=1;whiteSpace=wrap;html=1;strokeWidth=2;fillColor=#dae8fc;opacity=70;strokeColor=#6c8ebf;" vertex="1" parent="1">
          <mxGeometry x="62.5" y="300" width="727.5" height="70" as="geometry" />
        </mxCell>
        <mxCell id="Xj0UDZpbtA1QylR7ETEB-44" style="edgeStyle=orthogonalEdgeStyle;rounded=0;orthogonalLoop=1;jettySize=auto;html=1;exitX=1;exitY=0.75;exitDx=0;exitDy=0;entryX=0.005;entryY=0.539;entryDx=0;entryDy=0;entryPerimeter=0;" edge="1" parent="1" source="Xj0UDZpbtA1QylR7ETEB-37" target="Xj0UDZpbtA1QylR7ETEB-18">
          <mxGeometry relative="1" as="geometry" />
        </mxCell>
        <mxCell id="Xj0UDZpbtA1QylR7ETEB-37" value="" style="rounded=1;whiteSpace=wrap;html=1;strokeWidth=2;fillColor=#dae8fc;strokeColor=#6c8ebf;" vertex="1" parent="1">
          <mxGeometry x="668" y="40" width="120" height="230" as="geometry" />
        </mxCell>
        <mxCell id="Xj0UDZpbtA1QylR7ETEB-38" value="" style="rounded=1;whiteSpace=wrap;html=1;strokeWidth=2;strokeColor=#6c8ebf;fillColor=#dae8fc;" vertex="1" parent="1">
          <mxGeometry x="360" y="40" width="280" height="230" as="geometry" />
        </mxCell>
        <mxCell id="Xj0UDZpbtA1QylR7ETEB-33" value="" style="rounded=1;whiteSpace=wrap;html=1;strokeWidth=2;fillColor=#cce5ff;strokeColor=#36393d;gradientDirection=north;" vertex="1" parent="1">
          <mxGeometry x="62.5" y="40" width="295" height="230" as="geometry" />
        </mxCell>
        <mxCell id="Xj0UDZpbtA1QylR7ETEB-47" style="edgeStyle=orthogonalEdgeStyle;rounded=0;orthogonalLoop=1;jettySize=auto;html=1;" edge="1" parent="1" source="Xj0UDZpbtA1QylR7ETEB-1">
          <mxGeometry relative="1" as="geometry">
            <mxPoint x="60" y="200" as="targetPoint" />
          </mxGeometry>
        </mxCell>
        <mxCell id="Xj0UDZpbtA1QylR7ETEB-1" value="&lt;font style=&quot;font-size: 15px&quot;&gt;点&lt;br&gt;&lt;br&gt;云&lt;br&gt;&lt;br&gt;数&lt;br&gt;&lt;br&gt;据&lt;/font&gt;" style="rounded=1;whiteSpace=wrap;html=1;strokeWidth=2;fillColor=#dae8fc;strokeColor=#6c8ebf;" vertex="1" parent="1">
          <mxGeometry x="-20" y="40" width="40" height="320" as="geometry" />
        </mxCell>
        <mxCell id="Xj0UDZpbtA1QylR7ETEB-21" style="edgeStyle=orthogonalEdgeStyle;rounded=0;orthogonalLoop=1;jettySize=auto;html=1;exitX=1;exitY=0.5;exitDx=0;exitDy=0;dashed=1;" edge="1" parent="1" source="Xj0UDZpbtA1QylR7ETEB-2" target="Xj0UDZpbtA1QylR7ETEB-3">
          <mxGeometry relative="1" as="geometry" />
        </mxCell>
        <mxCell id="Xj0UDZpbtA1QylR7ETEB-2" value="&lt;font style=&quot;font-size: 16px&quot;&gt;多体素特征编码&lt;br&gt;VFE&lt;/font&gt;" style="rounded=1;whiteSpace=wrap;html=1;strokeWidth=2;dashed=1;strokeColor=#36393d;fillColor=#eeeeee;" vertex="1" parent="1">
          <mxGeometry x="80" y="100" width="120" height="50" as="geometry" />
        </mxCell>
        <mxCell id="Xj0UDZpbtA1QylR7ETEB-22" style="edgeStyle=orthogonalEdgeStyle;rounded=0;orthogonalLoop=1;jettySize=auto;html=1;exitX=1;exitY=0.5;exitDx=0;exitDy=0;entryX=0;entryY=0.5;entryDx=0;entryDy=0;dashed=1;" edge="1" parent="1" source="Xj0UDZpbtA1QylR7ETEB-3" target="Xj0UDZpbtA1QylR7ETEB-7">
          <mxGeometry relative="1" as="geometry" />
        </mxCell>
        <mxCell id="Xj0UDZpbtA1QylR7ETEB-27" style="edgeStyle=orthogonalEdgeStyle;rounded=0;orthogonalLoop=1;jettySize=auto;html=1;exitX=0.5;exitY=1;exitDx=0;exitDy=0;entryX=0.5;entryY=0;entryDx=0;entryDy=0;dashed=1;" edge="1" parent="1" source="Xj0UDZpbtA1QylR7ETEB-3" target="Xj0UDZpbtA1QylR7ETEB-5">
          <mxGeometry relative="1" as="geometry" />
        </mxCell>
        <mxCell id="Xj0UDZpbtA1QylR7ETEB-3" value="&lt;font style=&quot;font-size: 16px&quot;&gt;3D稀疏卷积&lt;/font&gt;" style="rounded=1;whiteSpace=wrap;html=1;strokeWidth=2;dashed=1;strokeColor=#36393d;fillColor=#eeeeee;" vertex="1" parent="1">
          <mxGeometry x="240" y="100" width="100" height="50" as="geometry" />
        </mxCell>
        <mxCell id="Xj0UDZpbtA1QylR7ETEB-25" style="edgeStyle=orthogonalEdgeStyle;rounded=0;orthogonalLoop=1;jettySize=auto;html=1;exitX=1;exitY=0.5;exitDx=0;exitDy=0;" edge="1" parent="1" source="Xj0UDZpbtA1QylR7ETEB-4" target="Xj0UDZpbtA1QylR7ETEB-5">
          <mxGeometry relative="1" as="geometry" />
        </mxCell>
        <mxCell id="Xj0UDZpbtA1QylR7ETEB-4" value="&lt;font style=&quot;font-size: 16px&quot;&gt;PointNet++&lt;/font&gt;" style="rounded=1;whiteSpace=wrap;html=1;strokeWidth=2;fillColor=#d5e8d4;strokeColor=#82b366;" vertex="1" parent="1">
          <mxGeometry x="80" y="200" width="100" height="50" as="geometry" />
        </mxCell>
        <mxCell id="Xj0UDZpbtA1QylR7ETEB-26" style="edgeStyle=orthogonalEdgeStyle;rounded=0;orthogonalLoop=1;jettySize=auto;html=1;exitX=1;exitY=0.5;exitDx=0;exitDy=0;entryX=0;entryY=0.5;entryDx=0;entryDy=0;" edge="1" parent="1" source="Xj0UDZpbtA1QylR7ETEB-5" target="Xj0UDZpbtA1QylR7ETEB-10">
          <mxGeometry relative="1" as="geometry" />
        </mxCell>
        <mxCell id="Xj0UDZpbtA1QylR7ETEB-28" style="edgeStyle=orthogonalEdgeStyle;rounded=0;orthogonalLoop=1;jettySize=auto;html=1;exitX=0.5;exitY=1;exitDx=0;exitDy=0;" edge="1" parent="1" source="Xj0UDZpbtA1QylR7ETEB-5" target="Xj0UDZpbtA1QylR7ETEB-14">
          <mxGeometry relative="1" as="geometry" />
        </mxCell>
        <mxCell id="Xj0UDZpbtA1QylR7ETEB-5" value="&lt;font style=&quot;font-size: 16px&quot;&gt;点特征编码&lt;/font&gt;" style="rounded=1;whiteSpace=wrap;html=1;strokeWidth=2;dashed=1;strokeColor=#36393d;fillColor=#eeeeee;" vertex="1" parent="1">
          <mxGeometry x="240" y="200" width="100" height="50" as="geometry" />
        </mxCell>
        <mxCell id="Xj0UDZpbtA1QylR7ETEB-23" style="edgeStyle=orthogonalEdgeStyle;rounded=0;orthogonalLoop=1;jettySize=auto;html=1;exitX=1;exitY=0.5;exitDx=0;exitDy=0;entryX=0;entryY=0.5;entryDx=0;entryDy=0;dashed=1;" edge="1" parent="1" source="Xj0UDZpbtA1QylR7ETEB-7" target="Xj0UDZpbtA1QylR7ETEB-8">
          <mxGeometry relative="1" as="geometry" />
        </mxCell>
        <mxCell id="Xj0UDZpbtA1QylR7ETEB-7" value="&lt;font style=&quot;font-size: 16px&quot;&gt;映射鸟瞰图&lt;/font&gt;" style="rounded=1;whiteSpace=wrap;html=1;strokeWidth=2;dashed=1;strokeColor=#36393d;fillColor=#eeeeee;" vertex="1" parent="1">
          <mxGeometry x="381" y="100" width="100" height="50" as="geometry" />
        </mxCell>
        <mxCell id="Xj0UDZpbtA1QylR7ETEB-24" style="edgeStyle=orthogonalEdgeStyle;rounded=0;orthogonalLoop=1;jettySize=auto;html=1;exitX=1;exitY=0.5;exitDx=0;exitDy=0;entryX=0;entryY=0.5;entryDx=0;entryDy=0;dashed=1;" edge="1" parent="1" source="Xj0UDZpbtA1QylR7ETEB-8" target="Xj0UDZpbtA1QylR7ETEB-9">
          <mxGeometry relative="1" as="geometry" />
        </mxCell>
        <mxCell id="Xj0UDZpbtA1QylR7ETEB-8" value="&lt;font style=&quot;font-size: 16px&quot;&gt;2D卷积编码&lt;/font&gt;" style="rounded=1;whiteSpace=wrap;html=1;strokeWidth=2;dashed=1;strokeColor=#36393d;fillColor=#eeeeee;" vertex="1" parent="1">
          <mxGeometry x="530" y="100" width="100" height="50" as="geometry" />
        </mxCell>
        <mxCell id="Xj0UDZpbtA1QylR7ETEB-9" value="&lt;font style=&quot;font-size: 15px&quot;&gt;RPN Head&lt;/font&gt;" style="rounded=1;whiteSpace=wrap;html=1;strokeWidth=2;dashed=1;strokeColor=#36393d;fillColor=#eeeeee;" vertex="1" parent="1">
          <mxGeometry x="678" y="100" width="100" height="50" as="geometry" />
        </mxCell>
        <mxCell id="Xj0UDZpbtA1QylR7ETEB-31" style="edgeStyle=orthogonalEdgeStyle;rounded=0;orthogonalLoop=1;jettySize=auto;html=1;exitX=0.5;exitY=1;exitDx=0;exitDy=0;entryX=0.5;entryY=0;entryDx=0;entryDy=0;" edge="1" parent="1" source="Xj0UDZpbtA1QylR7ETEB-10" target="Xj0UDZpbtA1QylR7ETEB-16">
          <mxGeometry relative="1" as="geometry" />
        </mxCell>
        <mxCell id="Xj0UDZpbtA1QylR7ETEB-10" value="&lt;font style=&quot;font-size: 16px&quot;&gt;Point Head&lt;/font&gt;" style="rounded=1;whiteSpace=wrap;html=1;strokeWidth=2;fillColor=#d5e8d4;strokeColor=#82b366;" vertex="1" parent="1">
          <mxGeometry x="678" y="200" width="100" height="50" as="geometry" />
        </mxCell>
        <mxCell id="Xj0UDZpbtA1QylR7ETEB-29" style="edgeStyle=orthogonalEdgeStyle;rounded=0;orthogonalLoop=1;jettySize=auto;html=1;exitX=1;exitY=0.5;exitDx=0;exitDy=0;" edge="1" parent="1" source="Xj0UDZpbtA1QylR7ETEB-14" target="Xj0UDZpbtA1QylR7ETEB-15">
          <mxGeometry relative="1" as="geometry" />
        </mxCell>
        <mxCell id="Xj0UDZpbtA1QylR7ETEB-14" value="&lt;font style=&quot;font-size: 16px&quot;&gt;提案层&lt;/font&gt;" style="rounded=1;whiteSpace=wrap;html=1;strokeWidth=2;fillColor=#d5e8d4;strokeColor=#82b366;" vertex="1" parent="1">
          <mxGeometry x="240" y="310" width="100" height="50" as="geometry" />
        </mxCell>
        <mxCell id="Xj0UDZpbtA1QylR7ETEB-30" style="edgeStyle=orthogonalEdgeStyle;rounded=0;orthogonalLoop=1;jettySize=auto;html=1;exitX=1;exitY=0.5;exitDx=0;exitDy=0;" edge="1" parent="1" source="Xj0UDZpbtA1QylR7ETEB-15" target="Xj0UDZpbtA1QylR7ETEB-16">
          <mxGeometry relative="1" as="geometry" />
        </mxCell>
        <mxCell id="Xj0UDZpbtA1QylR7ETEB-15" value="&lt;font style=&quot;font-size: 16px&quot;&gt;RoI 特征提取&lt;/font&gt;" style="rounded=1;whiteSpace=wrap;html=1;strokeWidth=2;fillColor=#d5e8d4;strokeColor=#82b366;" vertex="1" parent="1">
          <mxGeometry x="400" y="310" width="100" height="50" as="geometry" />
        </mxCell>
        <mxCell id="Xj0UDZpbtA1QylR7ETEB-16" value="&lt;font style=&quot;font-size: 16px&quot;&gt;RoI Head&lt;/font&gt;" style="rounded=1;whiteSpace=wrap;html=1;strokeWidth=2;fillColor=#d5e8d4;strokeColor=#82b366;" vertex="1" parent="1">
          <mxGeometry x="678" y="310" width="100" height="50" as="geometry" />
        </mxCell>
        <mxCell id="Xj0UDZpbtA1QylR7ETEB-18" value="&lt;span style=&quot;font-size: 15px&quot;&gt;预&lt;br&gt;&lt;br&gt;测&lt;br&gt;&lt;br&gt;结&lt;br&gt;&lt;br&gt;果&lt;/span&gt;" style="rounded=1;whiteSpace=wrap;html=1;strokeWidth=2;fillColor=#dae8fc;strokeColor=#6c8ebf;" vertex="1" parent="1">
          <mxGeometry x="830" y="40" width="40" height="320" as="geometry" />
        </mxCell>
        <mxCell id="Xj0UDZpbtA1QylR7ETEB-32" value="&lt;font style=&quot;font-size: 16px&quot;&gt;&lt;font style=&quot;font-size: 16px&quot;&gt;RoI&lt;/font&gt;&amp;nbsp;Head&lt;/font&gt;" style="text;html=1;align=center;verticalAlign=middle;resizable=0;points=[];autosize=1;" vertex="1" parent="1">
          <mxGeometry x="80" y="330" width="80" height="20" as="geometry" />
        </mxCell>
        <mxCell id="Xj0UDZpbtA1QylR7ETEB-35" value="&lt;font style=&quot;font-size: 16px&quot;&gt;3D骨架&lt;/font&gt;" style="text;html=1;strokeColor=none;fillColor=none;align=center;verticalAlign=middle;whiteSpace=wrap;rounded=0;" vertex="1" parent="1">
          <mxGeometry x="180" y="50" width="60" height="20" as="geometry" />
        </mxCell>
        <mxCell id="Xj0UDZpbtA1QylR7ETEB-39" value="&lt;font style=&quot;font-size: 16px&quot;&gt;2D骨架&lt;/font&gt;" style="text;html=1;strokeColor=none;fillColor=none;align=center;verticalAlign=middle;whiteSpace=wrap;rounded=0;" vertex="1" parent="1">
          <mxGeometry x="466" y="50" width="60" height="20" as="geometry" />
        </mxCell>
        <mxCell id="Xj0UDZpbtA1QylR7ETEB-40" value="&lt;font style=&quot;font-size: 16px&quot;&gt;密集头&lt;/font&gt;" style="text;html=1;strokeColor=none;fillColor=none;align=center;verticalAlign=middle;whiteSpace=wrap;rounded=0;" vertex="1" parent="1">
          <mxGeometry x="695" y="50" width="60" height="20" as="geometry" />
        </mxCell>
      </root>
    </mxGraphModel>
  </diagram>
</mxfile>
